<svg width="256" height="256" viewBox="0 0 256 256" fill="none" xmlns="http://www.w3.org/2000/svg">
<path d="M238.636 112.983C237.531 111.433 236.07 110.171 234.376 109.304C232.681 108.437 230.803 107.989 228.9 108H212V88C211.996 84.8185 210.731 81.7684 208.481 79.5188C206.232 77.2692 203.181 76.0037 200 76H130.667C129.802 75.9981 128.96 75.7176 128.267 75.2L100.533 54.4C98.4533 52.847 95.9286 52.0054 93.333 52H40C36.8185 52.0037 33.7684 53.2692 31.5188 55.5188C29.2692 57.7684 28.0037 60.8185 28 64V208C28 208.018 28.005 208.035 28.005 208.053C28.0088 208.278 28.0316 208.502 28.073 208.723C28.081 208.764 28.085 208.806 28.093 208.847C28.1414 209.065 28.208 209.278 28.292 209.485C28.313 209.538 28.336 209.589 28.359 209.64C28.4474 209.84 28.5521 210.033 28.672 210.216L28.687 210.241V210.243C28.8162 210.429 28.9611 210.604 29.12 210.765C29.155 210.803 29.19 210.839 29.228 210.875C29.3879 211.031 29.5605 211.173 29.744 211.3C29.771 211.319 29.799 211.334 29.827 211.351C29.9961 211.46 30.1732 211.557 30.357 211.639C30.403 211.66 30.447 211.683 30.495 211.702C30.7015 211.785 30.9146 211.851 31.132 211.899C31.182 211.911 31.232 211.919 31.284 211.928C31.52 211.974 31.7596 211.998 32 212H208C208.84 212 209.658 211.736 210.339 211.245C211.02 210.754 211.529 210.061 211.795 209.265L240.285 123.795C240.897 121.993 241.066 120.069 240.779 118.188C240.492 116.306 239.756 114.521 238.635 112.983H238.636ZM40 60H93.334C94.1992 60.0019 95.0407 60.2824 95.734 60.8L123.467 81.6C125.547 83.153 128.071 83.9946 130.667 84H200C201.06 84.0013 202.077 84.4232 202.827 85.173C203.577 85.9229 203.999 86.9395 204 88V108H146.422C144.053 107.998 141.736 108.7 139.766 110.016L119.796 123.328C119.14 123.767 118.368 124.001 117.578 124H69.416C67.0159 123.992 64.6692 124.708 62.6817 126.053C60.6942 127.399 59.1582 129.312 58.274 131.543L36 187.23V64C36.0013 62.9395 36.4232 61.9229 37.173 61.173C37.9229 60.4232 38.9395 60.0013 40 60V60ZM232.695 121.265L205.117 204H37.908L65.702 134.515C65.9965 133.771 66.5084 133.133 67.171 132.684C67.8335 132.236 68.6159 131.997 69.416 132H117.578C119.947 132.002 122.264 131.3 124.234 129.984L144.204 116.672C144.86 116.233 145.632 115.999 146.422 116H228.9C229.534 116 230.159 116.151 230.723 116.439C231.287 116.728 231.775 117.147 232.145 117.661C232.516 118.175 232.759 118.77 232.855 119.397C232.95 120.023 232.895 120.664 232.695 121.265V121.265Z" fill="white"/>
</svg>
